<?xml version="1.0" encoding="utf-8" standalone="no"?>
<!DOCTYPE svg PUBLIC "-//W3C//DTD SVG 1.1//EN"
  "http://www.w3.org/Graphics/SVG/1.1/DTD/svg11.dtd">
<!-- Created with matplotlib (http://matplotlib.sourceforge.net/) -->
<svg height="441pt" version="1.1" viewBox="0 0 585 441" width="585pt" xmlns="http://www.w3.org/2000/svg" xmlns:xlink="http://www.w3.org/1999/xlink">
 <defs>
  <style type="text/css">
*{stroke-linecap:square;stroke-linejoin:round;}
  </style>
 </defs>
 <g id="figure_1">
  <g id="patch_1">
   <path d="
M0 441
L585 441
L585 0
L0 0
z
" style="fill:#ffffff;"/>
  </g>
  <g id="axes_1">
   <g id="LineCollection_1">
    <defs>
     <path d="
M309.66 -122.134
L375.393 -67.326" id="C0_0_cf71854412"/>
     <path d="
M309.66 -122.134
L483.903 -164.355" id="C0_1_e166737a1e"/>
     <path d="
M309.66 -122.134
L145.178 -128.481" id="C0_2_e1c4614215"/>
     <path d="
M309.66 -122.134
L466.292 -99.5051" id="C0_3_197c12e174"/>
     <path d="
M309.66 -122.134
L253.717 -63" id="C0_4_52a36b87b3"/>
     <path d="
M309.66 -122.134
L288.733 -264.776" id="C0_5_b80f6d1401"/>
     <path d="
M309.66 -122.134
L161.601 -215.6" id="C0_6_053c019ffe"/>
     <path d="
M309.66 -122.134
L342.736 -182.161" id="C0_7_1cc60acf2b"/>
     <path d="
M413.422 -362.894
L175.548 -369.17" id="C0_8_66ab84ee3b"/>
     <path d="
M413.422 -362.894
L287.988 -378" id="C0_9_7d6ec03fe1"/>
     <path d="
M413.422 -362.894
L58.5 -333.201" id="C0_a_1a289c21dc"/>
     <path d="
M413.422 -362.894
L288.733 -264.776" id="C0_b_da7156a21a"/>
     <path d="
M413.422 -362.894
L483.903 -164.355" id="C0_c_abf901eb93"/>
     <path d="
M175.548 -369.17
L287.988 -378" id="C0_d_71be1d40fb"/>
     <path d="
M175.548 -369.17
L58.5 -333.201" id="C0_e_d3f66d02d0"/>
     <path d="
M175.548 -369.17
L288.733 -264.776" id="C0_f_af2754ffbe"/>
     <path d="
M175.548 -369.17
L161.601 -215.6" id="C0_10_cc21e66cf6"/>
     <path d="
M145.178 -128.481
L375.393 -67.326" id="C0_11_7c064c546e"/>
     <path d="
M145.178 -128.481
L466.292 -99.5051" id="C0_12_a112e371ec"/>
     <path d="
M145.178 -128.481
L253.717 -63" id="C0_13_6df740429a"/>
     <path d="
M145.178 -128.481
L58.5 -333.201" id="C0_14_22ec06ee73"/>
     <path d="
M145.178 -128.481
L288.733 -264.776" id="C0_15_20c711a538"/>
     <path d="
M145.178 -128.481
L161.601 -215.6" id="C0_16_ce5a0f5c7d"/>
     <path d="
M145.178 -128.481
L342.736 -182.161" id="C0_17_b770e33364"/>
     <path d="
M375.393 -67.326
L466.292 -99.5051" id="C0_18_fa55ae084b"/>
     <path d="
M375.393 -67.326
L483.903 -164.355" id="C0_19_9e7ac7f505"/>
     <path d="
M375.393 -67.326
L253.717 -63" id="C0_1a_7526ab39cb"/>
     <path d="
M375.393 -67.326
L342.736 -182.161" id="C0_1b_dd9ed55852"/>
     <path d="
M483.903 -164.355
L466.292 -99.5051" id="C0_1c_668a563165"/>
     <path d="
M483.903 -164.355
L253.717 -63" id="C0_1d_0842397150"/>
     <path d="
M483.903 -164.355
L161.601 -215.6" id="C0_1e_ec244d1ad2"/>
     <path d="
M483.903 -164.355
L342.736 -182.161" id="C0_1f_16ee7c14ab"/>
     <path d="
M287.988 -378
L58.5 -333.201" id="C0_20_5c02e3dbfa"/>
     <path d="
M287.988 -378
L288.733 -264.776" id="C0_21_f9e3b0b0bb"/>
     <path d="
M287.988 -378
L161.601 -215.6" id="C0_22_feaaf06635"/>
     <path d="
M287.988 -378
L342.736 -182.161" id="C0_23_4e37edde3c"/>
     <path d="
M466.292 -99.5051
L253.717 -63" id="C0_24_8fa58e5500"/>
     <path d="
M466.292 -99.5051
L288.733 -264.776" id="C0_25_ab215e2c29"/>
     <path d="
M466.292 -99.5051
L342.736 -182.161" id="C0_26_ca6ce0f0f8"/>
     <path d="
M253.717 -63
L161.601 -215.6" id="C0_27_fa5c6584e0"/>
     <path d="
M253.717 -63
L342.736 -182.161" id="C0_28_c094284531"/>
     <path d="
M58.5 -333.201
L288.733 -264.776" id="C0_29_d1d0971d06"/>
     <path d="
M288.733 -264.776
L161.601 -215.6" id="C0_2a_3766995dfd"/>
     <path d="
M288.733 -264.776
L342.736 -182.161" id="C0_2b_6f8714ff9a"/>
     <path d="
M161.601 -215.6
L342.736 -182.161" id="C0_2c_60da923d1e"/>
    </defs>
    <g clip-path="url(#pd19962080c)">
     <use style="fill:none;stroke:#000000;stroke-linecap:butt;" x="0" xlink:href="#C0_0_cf71854412" y="441.0"/>
    </g>
    <g clip-path="url(#pd19962080c)">
     <use style="fill:none;stroke:#000000;stroke-linecap:butt;" x="0" xlink:href="#C0_1_e166737a1e" y="441.0"/>
    </g>
    <g clip-path="url(#pd19962080c)">
     <use style="fill:none;stroke:#000000;stroke-linecap:butt;" x="0" xlink:href="#C0_2_e1c4614215" y="441.0"/>
    </g>
    <g clip-path="url(#pd19962080c)">
     <use style="fill:none;stroke:#000000;stroke-linecap:butt;" x="0" xlink:href="#C0_3_197c12e174" y="441.0"/>
    </g>
    <g clip-path="url(#pd19962080c)">
     <use style="fill:none;stroke:#000000;stroke-linecap:butt;" x="0" xlink:href="#C0_4_52a36b87b3" y="441.0"/>
    </g>
    <g clip-path="url(#pd19962080c)">
     <use style="fill:none;stroke:#000000;stroke-linecap:butt;" x="0" xlink:href="#C0_5_b80f6d1401" y="441.0"/>
    </g>
    <g clip-path="url(#pd19962080c)">
     <use style="fill:none;stroke:#000000;stroke-linecap:butt;" x="0" xlink:href="#C0_6_053c019ffe" y="441.0"/>
    </g>
    <g clip-path="url(#pd19962080c)">
     <use style="fill:none;stroke:#000000;stroke-linecap:butt;" x="0" xlink:href="#C0_7_1cc60acf2b" y="441.0"/>
    </g>
    <g clip-path="url(#pd19962080c)">
     <use style="fill:none;stroke:#000000;stroke-linecap:butt;" x="0" xlink:href="#C0_8_66ab84ee3b" y="441.0"/>
    </g>
    <g clip-path="url(#pd19962080c)">
     <use style="fill:none;stroke:#000000;stroke-linecap:butt;" x="0" xlink:href="#C0_9_7d6ec03fe1" y="441.0"/>
    </g>
    <g clip-path="url(#pd19962080c)">
     <use style="fill:none;stroke:#000000;stroke-linecap:butt;" x="0" xlink:href="#C0_a_1a289c21dc" y="441.0"/>
    </g>
    <g clip-path="url(#pd19962080c)">
     <use style="fill:none;stroke:#000000;stroke-linecap:butt;" x="0" xlink:href="#C0_b_da7156a21a" y="441.0"/>
    </g>
    <g clip-path="url(#pd19962080c)">
     <use style="fill:none;stroke:#000000;stroke-linecap:butt;" x="0" xlink:href="#C0_c_abf901eb93" y="441.0"/>
    </g>
    <g clip-path="url(#pd19962080c)">
     <use style="fill:none;stroke:#000000;stroke-linecap:butt;" x="0" xlink:href="#C0_d_71be1d40fb" y="441.0"/>
    </g>
    <g clip-path="url(#pd19962080c)">
     <use style="fill:none;stroke:#000000;stroke-linecap:butt;" x="0" xlink:href="#C0_e_d3f66d02d0" y="441.0"/>
    </g>
    <g clip-path="url(#pd19962080c)">
     <use style="fill:none;stroke:#000000;stroke-linecap:butt;" x="0" xlink:href="#C0_f_af2754ffbe" y="441.0"/>
    </g>
    <g clip-path="url(#pd19962080c)">
     <use style="fill:none;stroke:#000000;stroke-linecap:butt;" x="0" xlink:href="#C0_10_cc21e66cf6" y="441.0"/>
    </g>
    <g clip-path="url(#pd19962080c)">
     <use style="fill:none;stroke:#000000;stroke-linecap:butt;" x="0" xlink:href="#C0_11_7c064c546e" y="441.0"/>
    </g>
    <g clip-path="url(#pd19962080c)">
     <use style="fill:none;stroke:#000000;stroke-linecap:butt;" x="0" xlink:href="#C0_12_a112e371ec" y="441.0"/>
    </g>
    <g clip-path="url(#pd19962080c)">
     <use style="fill:none;stroke:#000000;stroke-linecap:butt;" x="0" xlink:href="#C0_13_6df740429a" y="441.0"/>
    </g>
    <g clip-path="url(#pd19962080c)">
     <use style="fill:none;stroke:#000000;stroke-linecap:butt;" x="0" xlink:href="#C0_14_22ec06ee73" y="441.0"/>
    </g>
    <g clip-path="url(#pd19962080c)">
     <use style="fill:none;stroke:#000000;stroke-linecap:butt;" x="0" xlink:href="#C0_15_20c711a538" y="441.0"/>
    </g>
    <g clip-path="url(#pd19962080c)">
     <use style="fill:none;stroke:#000000;stroke-linecap:butt;" x="0" xlink:href="#C0_16_ce5a0f5c7d" y="441.0"/>
    </g>
    <g clip-path="url(#pd19962080c)">
     <use style="fill:none;stroke:#000000;stroke-linecap:butt;" x="0" xlink:href="#C0_17_b770e33364" y="441.0"/>
    </g>
    <g clip-path="url(#pd19962080c)">
     <use style="fill:none;stroke:#000000;stroke-linecap:butt;" x="0" xlink:href="#C0_18_fa55ae084b" y="441.0"/>
    </g>
    <g clip-path="url(#pd19962080c)">
     <use style="fill:none;stroke:#000000;stroke-linecap:butt;" x="0" xlink:href="#C0_19_9e7ac7f505" y="441.0"/>
    </g>
    <g clip-path="url(#pd19962080c)">
     <use style="fill:none;stroke:#000000;stroke-linecap:butt;" x="0" xlink:href="#C0_1a_7526ab39cb" y="441.0"/>
    </g>
    <g clip-path="url(#pd19962080c)">
     <use style="fill:none;stroke:#000000;stroke-linecap:butt;" x="0" xlink:href="#C0_1b_dd9ed55852" y="441.0"/>
    </g>
    <g clip-path="url(#pd19962080c)">
     <use style="fill:none;stroke:#000000;stroke-linecap:butt;" x="0" xlink:href="#C0_1c_668a563165" y="441.0"/>
    </g>
    <g clip-path="url(#pd19962080c)">
     <use style="fill:none;stroke:#000000;stroke-linecap:butt;" x="0" xlink:href="#C0_1d_0842397150" y="441.0"/>
    </g>
    <g clip-path="url(#pd19962080c)">
     <use style="fill:none;stroke:#000000;stroke-linecap:butt;" x="0" xlink:href="#C0_1e_ec244d1ad2" y="441.0"/>
    </g>
    <g clip-path="url(#pd19962080c)">
     <use style="fill:none;stroke:#000000;stroke-linecap:butt;" x="0" xlink:href="#C0_1f_16ee7c14ab" y="441.0"/>
    </g>
    <g clip-path="url(#pd19962080c)">
     <use style="fill:none;stroke:#000000;stroke-linecap:butt;" x="0" xlink:href="#C0_20_5c02e3dbfa" y="441.0"/>
    </g>
    <g clip-path="url(#pd19962080c)">
     <use style="fill:none;stroke:#000000;stroke-linecap:butt;" x="0" xlink:href="#C0_21_f9e3b0b0bb" y="441.0"/>
    </g>
    <g clip-path="url(#pd19962080c)">
     <use style="fill:none;stroke:#000000;stroke-linecap:butt;" x="0" xlink:href="#C0_22_feaaf06635" y="441.0"/>
    </g>
    <g clip-path="url(#pd19962080c)">
     <use style="fill:none;stroke:#000000;stroke-linecap:butt;" x="0" xlink:href="#C0_23_4e37edde3c" y="441.0"/>
    </g>
    <g clip-path="url(#pd19962080c)">
     <use style="fill:none;stroke:#000000;stroke-linecap:butt;" x="0" xlink:href="#C0_24_8fa58e5500" y="441.0"/>
    </g>
    <g clip-path="url(#pd19962080c)">
     <use style="fill:none;stroke:#000000;stroke-linecap:butt;" x="0" xlink:href="#C0_25_ab215e2c29" y="441.0"/>
    </g>
    <g clip-path="url(#pd19962080c)">
     <use style="fill:none;stroke:#000000;stroke-linecap:butt;" x="0" xlink:href="#C0_26_ca6ce0f0f8" y="441.0"/>
    </g>
    <g clip-path="url(#pd19962080c)">
     <use style="fill:none;stroke:#000000;stroke-linecap:butt;" x="0" xlink:href="#C0_27_fa5c6584e0" y="441.0"/>
    </g>
    <g clip-path="url(#pd19962080c)">
     <use style="fill:none;stroke:#000000;stroke-linecap:butt;" x="0" xlink:href="#C0_28_c094284531" y="441.0"/>
    </g>
    <g clip-path="url(#pd19962080c)">
     <use style="fill:none;stroke:#000000;stroke-linecap:butt;" x="0" xlink:href="#C0_29_d1d0971d06" y="441.0"/>
    </g>
    <g clip-path="url(#pd19962080c)">
     <use style="fill:none;stroke:#000000;stroke-linecap:butt;" x="0" xlink:href="#C0_2a_3766995dfd" y="441.0"/>
    </g>
    <g clip-path="url(#pd19962080c)">
     <use style="fill:none;stroke:#000000;stroke-linecap:butt;" x="0" xlink:href="#C0_2b_6f8714ff9a" y="441.0"/>
    </g>
    <g clip-path="url(#pd19962080c)">
     <use style="fill:none;stroke:#000000;stroke-linecap:butt;" x="0" xlink:href="#C0_2c_60da923d1e" y="441.0"/>
    </g>
   </g>
   <g id="PathCollection_1">
    <defs>
     <path d="
M0 8.66025
C2.29673 8.66025 4.49969 7.74776 6.12372 6.12372
C7.74776 4.49969 8.66025 2.29673 8.66025 0
C8.66025 -2.29673 7.74776 -4.49969 6.12372 -6.12372
C4.49969 -7.74776 2.29673 -8.66025 0 -8.66025
C-2.29673 -8.66025 -4.49969 -7.74776 -6.12372 -6.12372
C-7.74776 -4.49969 -8.66025 -2.29673 -8.66025 0
C-8.66025 2.29673 -7.74776 4.49969 -6.12372 6.12372
C-4.49969 7.74776 -2.29673 8.66025 0 8.66025
z
" id="C1_0_2aea4494f3"/>
    </defs>
    <g clip-path="url(#pd19962080c)">
     <use style="fill:#ff0000;stroke:#000000;stroke-linecap:butt;" x="466.291750511" xlink:href="#C1_0_2aea4494f3" y="341.494873551"/>
    </g>
    <g clip-path="url(#pd19962080c)">
     <use style="fill:#ff0000;stroke:#000000;stroke-linecap:butt;" x="413.422024958" xlink:href="#C1_0_2aea4494f3" y="78.1060800158"/>
    </g>
    <g clip-path="url(#pd19962080c)">
     <use style="fill:#ff0000;stroke:#000000;stroke-linecap:butt;" x="483.902882298" xlink:href="#C1_0_2aea4494f3" y="276.644841699"/>
    </g>
    <g clip-path="url(#pd19962080c)">
     <use style="fill:#ff0000;stroke:#000000;stroke-linecap:butt;" x="287.988287483" xlink:href="#C1_0_2aea4494f3" y="63.0"/>
    </g>
    <g clip-path="url(#pd19962080c)">
     <use style="fill:#ff0000;stroke:#000000;stroke-linecap:butt;" x="375.392630845" xlink:href="#C1_0_2aea4494f3" y="373.674023906"/>
    </g>
    <g clip-path="url(#pd19962080c)">
     <use style="fill:#ff0000;stroke:#000000;stroke-linecap:butt;" x="175.548230226" xlink:href="#C1_0_2aea4494f3" y="71.8298874"/>
    </g>
    <g clip-path="url(#pd19962080c)">
     <use style="fill:#ff0000;stroke:#000000;stroke-linecap:butt;" x="145.178459191" xlink:href="#C1_0_2aea4494f3" y="312.518835699"/>
    </g>
    <g clip-path="url(#pd19962080c)">
     <use style="fill:#ff0000;stroke:#000000;stroke-linecap:butt;" x="309.65997395" xlink:href="#C1_0_2aea4494f3" y="318.86616993"/>
    </g>
    <g clip-path="url(#pd19962080c)">
     <use style="fill:#ff0000;stroke:#000000;stroke-linecap:butt;" x="253.716749612" xlink:href="#C1_0_2aea4494f3" y="378.0"/>
    </g>
    <g clip-path="url(#pd19962080c)">
     <use style="fill:#ff0000;stroke:#000000;stroke-linecap:butt;" x="58.5" xlink:href="#C1_0_2aea4494f3" y="107.798634583"/>
    </g>
    <g clip-path="url(#pd19962080c)">
     <use style="fill:#ff0000;stroke:#000000;stroke-linecap:butt;" x="288.732920964" xlink:href="#C1_0_2aea4494f3" y="176.224300528"/>
    </g>
    <g clip-path="url(#pd19962080c)">
     <use style="fill:#ff0000;stroke:#000000;stroke-linecap:butt;" x="161.601013524" xlink:href="#C1_0_2aea4494f3" y="225.399681542"/>
    </g>
    <g clip-path="url(#pd19962080c)">
     <use style="fill:#ff0000;stroke:#000000;stroke-linecap:butt;" x="342.73643592" xlink:href="#C1_0_2aea4494f3" y="258.839077916"/>
    </g>
   </g>
   <g id="text_1">
    <g clip-path="url(#pd19962080c)">
     <!-- ('l', 8) -->
     <defs>
      <path d="
M11.7188 12.4062
L22.0156 12.4062
L22.0156 4
L14.0156 -11.625
L7.71875 -11.625
L11.7188 4
z
" id="DejaVuSans-2c"/>
      <path d="
M9.42188 75.9844
L18.4062 75.9844
L18.4062 0
L9.42188 0
z
" id="DejaVuSans-6c"/>
      <path id="DejaVuSans-20"/>
      <path d="
M17.9219 72.9062
L17.9219 45.7969
L9.625 45.7969
L9.625 72.9062
z
" id="DejaVuSans-27"/>
      <path d="
M31.7812 34.625
Q24.75 34.625 20.7188 30.8594
Q16.7031 27.0938 16.7031 20.5156
Q16.7031 13.9219 20.7188 10.1562
Q24.75 6.39062 31.7812 6.39062
Q38.8125 6.39062 42.8594 10.1719
Q46.9219 13.9688 46.9219 20.5156
Q46.9219 27.0938 42.8906 30.8594
Q38.875 34.625 31.7812 34.625
M21.9219 38.8125
Q15.5781 40.375 12.0312 44.7188
Q8.5 49.0781 8.5 55.3281
Q8.5 64.0625 14.7188 69.1406
Q20.9531 74.2188 31.7812 74.2188
Q42.6719 74.2188 48.875 69.1406
Q55.0781 64.0625 55.0781 55.3281
Q55.0781 49.0781 51.5312 44.7188
Q48 40.375 41.7031 38.8125
Q48.8281 37.1562 52.7969 32.3125
Q56.7812 27.4844 56.7812 20.5156
Q56.7812 9.90625 50.3125 4.23438
Q43.8438 -1.42188 31.7812 -1.42188
Q19.7344 -1.42188 13.25 4.23438
Q6.78125 9.90625 6.78125 20.5156
Q6.78125 27.4844 10.7812 32.3125
Q14.7969 37.1562 21.9219 38.8125
M18.3125 54.3906
Q18.3125 48.7344 21.8438 45.5625
Q25.3906 42.3906 31.7812 42.3906
Q38.1406 42.3906 41.7188 45.5625
Q45.3125 48.7344 45.3125 54.3906
Q45.3125 60.0625 41.7188 63.2344
Q38.1406 66.4062 31.7812 66.4062
Q25.3906 66.4062 21.8438 63.2344
Q18.3125 60.0625 18.3125 54.3906" id="DejaVuSans-38"/>
      <path d="
M31 75.875
Q24.4688 64.6562 21.2812 53.6562
Q18.1094 42.6719 18.1094 31.3906
Q18.1094 20.125 21.3125 9.0625
Q24.5156 -2 31 -13.1875
L23.1875 -13.1875
Q15.875 -1.70312 12.2344 9.375
Q8.59375 20.4531 8.59375 31.3906
Q8.59375 42.2812 12.2031 53.3125
Q15.8281 64.3594 23.1875 75.875
z
" id="DejaVuSans-28"/>
      <path d="
M8.01562 75.875
L15.8281 75.875
Q23.1406 64.3594 26.7812 53.3125
Q30.4219 42.2812 30.4219 31.3906
Q30.4219 20.4531 26.7812 9.375
Q23.1406 -1.70312 15.8281 -13.1875
L8.01562 -13.1875
Q14.5 -2 17.7031 9.0625
Q20.9062 20.125 20.9062 31.3906
Q20.9062 42.6719 17.7031 53.6562
Q14.5 64.6562 8.01562 75.875" id="DejaVuSans-29"/>
     </defs>
     <g transform="translate(292.89747395 322.63398243)scale(0.12 -0.12)">
      <use xlink:href="#DejaVuSans-28"/>
      <use x="39.013671875" xlink:href="#DejaVuSans-27"/>
      <use x="66.50390625" xlink:href="#DejaVuSans-6c"/>
      <use x="94.287109375" xlink:href="#DejaVuSans-27"/>
      <use x="121.77734375" xlink:href="#DejaVuSans-2c"/>
      <use x="153.564453125" xlink:href="#DejaVuSans-20"/>
      <use x="185.3515625" xlink:href="#DejaVuSans-38"/>
      <use x="248.974609375" xlink:href="#DejaVuSans-29"/>
     </g>
    </g>
   </g>
   <g id="text_2">
    <g clip-path="url(#pd19962080c)">
     <!-- ('g', 6) -->
     <defs>
      <path d="
M45.4062 27.9844
Q45.4062 37.75 41.375 43.1094
Q37.3594 48.4844 30.0781 48.4844
Q22.8594 48.4844 18.8281 43.1094
Q14.7969 37.75 14.7969 27.9844
Q14.7969 18.2656 18.8281 12.8906
Q22.8594 7.51562 30.0781 7.51562
Q37.3594 7.51562 41.375 12.8906
Q45.4062 18.2656 45.4062 27.9844
M54.3906 6.78125
Q54.3906 -7.17188 48.1875 -13.9844
Q42 -20.7969 29.2031 -20.7969
Q24.4688 -20.7969 20.2656 -20.0938
Q16.0625 -19.3906 12.1094 -17.9219
L12.1094 -9.1875
Q16.0625 -11.3281 19.9219 -12.3438
Q23.7812 -13.375 27.7812 -13.375
Q36.625 -13.375 41.0156 -8.76562
Q45.4062 -4.15625 45.4062 5.17188
L45.4062 9.625
Q42.625 4.78125 38.2812 2.39062
Q33.9375 0 27.875 0
Q17.8281 0 11.6719 7.65625
Q5.51562 15.3281 5.51562 27.9844
Q5.51562 40.6719 11.6719 48.3281
Q17.8281 56 27.875 56
Q33.9375 56 38.2812 53.6094
Q42.625 51.2188 45.4062 46.3906
L45.4062 54.6875
L54.3906 54.6875
z
" id="DejaVuSans-67"/>
      <path d="
M33.0156 40.375
Q26.375 40.375 22.4844 35.8281
Q18.6094 31.2969 18.6094 23.3906
Q18.6094 15.5312 22.4844 10.9531
Q26.375 6.39062 33.0156 6.39062
Q39.6562 6.39062 43.5312 10.9531
Q47.4062 15.5312 47.4062 23.3906
Q47.4062 31.2969 43.5312 35.8281
Q39.6562 40.375 33.0156 40.375
M52.5938 71.2969
L52.5938 62.3125
Q48.875 64.0625 45.0938 64.9844
Q41.3125 65.9219 37.5938 65.9219
Q27.8281 65.9219 22.6719 59.3281
Q17.5312 52.7344 16.7969 39.4062
Q19.6719 43.6562 24.0156 45.9219
Q28.375 48.1875 33.5938 48.1875
Q44.5781 48.1875 50.9531 41.5156
Q57.3281 34.8594 57.3281 23.3906
Q57.3281 12.1562 50.6875 5.35938
Q44.0469 -1.42188 33.0156 -1.42188
Q20.3594 -1.42188 13.6719 8.26562
Q6.98438 17.9688 6.98438 36.375
Q6.98438 53.6562 15.1875 63.9375
Q23.3906 74.2188 37.2031 74.2188
Q40.9219 74.2188 44.7031 73.4844
Q48.4844 72.75 52.5938 71.2969" id="DejaVuSans-36"/>
     </defs>
     <g transform="translate(356.487943345 376.978711406)scale(0.12 -0.12)">
      <use xlink:href="#DejaVuSans-28"/>
      <use x="39.013671875" xlink:href="#DejaVuSans-27"/>
      <use x="66.50390625" xlink:href="#DejaVuSans-67"/>
      <use x="129.98046875" xlink:href="#DejaVuSans-27"/>
      <use x="157.470703125" xlink:href="#DejaVuSans-2c"/>
      <use x="189.2578125" xlink:href="#DejaVuSans-20"/>
      <use x="221.044921875" xlink:href="#DejaVuSans-36"/>
      <use x="284.66796875" xlink:href="#DejaVuSans-29"/>
     </g>
    </g>
   </g>
   <g id="text_3">
    <g clip-path="url(#pd19962080c)">
     <!-- ('k', 7) -->
     <defs>
      <path d="
M9.07812 75.9844
L18.1094 75.9844
L18.1094 31.1094
L44.9219 54.6875
L56.3906 54.6875
L27.3906 29.1094
L57.625 0
L45.9062 0
L18.1094 26.7031
L18.1094 0
L9.07812 0
z
" id="DejaVuSans-6b"/>
      <path d="
M8.20312 72.9062
L55.0781 72.9062
L55.0781 68.7031
L28.6094 0
L18.3125 0
L43.2188 64.5938
L8.20312 64.5938
z
" id="DejaVuSans-37"/>
     </defs>
     <g transform="translate(465.332882298 280.412654199)scale(0.12 -0.12)">
      <use xlink:href="#DejaVuSans-28"/>
      <use x="39.013671875" xlink:href="#DejaVuSans-27"/>
      <use x="66.50390625" xlink:href="#DejaVuSans-6b"/>
      <use x="124.4140625" xlink:href="#DejaVuSans-27"/>
      <use x="151.904296875" xlink:href="#DejaVuSans-2c"/>
      <use x="183.69140625" xlink:href="#DejaVuSans-20"/>
      <use x="215.478515625" xlink:href="#DejaVuSans-37"/>
      <use x="279.1015625" xlink:href="#DejaVuSans-29"/>
     </g>
    </g>
   </g>
   <g id="text_4">
    <g clip-path="url(#pd19962080c)">
     <!-- ('h', 8) -->
     <defs>
      <path d="
M54.8906 33.0156
L54.8906 0
L45.9062 0
L45.9062 32.7188
Q45.9062 40.4844 42.875 44.3281
Q39.8438 48.1875 33.7969 48.1875
Q26.5156 48.1875 22.3125 43.5469
Q18.1094 38.9219 18.1094 30.9062
L18.1094 0
L9.07812 0
L9.07812 75.9844
L18.1094 75.9844
L18.1094 46.1875
Q21.3438 51.125 25.7031 53.5625
Q30.0781 56 35.7969 56
Q45.2188 56 50.0469 50.1719
Q54.8906 44.3438 54.8906 33.0156" id="DejaVuSans-68"/>
     </defs>
     <g transform="translate(126.280334191 316.286648199)scale(0.12 -0.12)">
      <use xlink:href="#DejaVuSans-28"/>
      <use x="39.013671875" xlink:href="#DejaVuSans-27"/>
      <use x="66.50390625" xlink:href="#DejaVuSans-68"/>
      <use x="129.8828125" xlink:href="#DejaVuSans-27"/>
      <use x="157.373046875" xlink:href="#DejaVuSans-2c"/>
      <use x="189.16015625" xlink:href="#DejaVuSans-20"/>
      <use x="220.947265625" xlink:href="#DejaVuSans-38"/>
      <use x="284.5703125" xlink:href="#DejaVuSans-29"/>
     </g>
    </g>
   </g>
   <g id="text_5">
    <g clip-path="url(#pd19962080c)">
     <!-- ('j', 5) -->
     <defs>
      <path d="
M10.7969 72.9062
L49.5156 72.9062
L49.5156 64.5938
L19.8281 64.5938
L19.8281 46.7344
Q21.9688 47.4688 24.1094 47.8281
Q26.2656 48.1875 28.4219 48.1875
Q40.625 48.1875 47.75 41.5
Q54.8906 34.8125 54.8906 23.3906
Q54.8906 11.625 47.5625 5.09375
Q40.2344 -1.42188 26.9062 -1.42188
Q22.3125 -1.42188 17.5469 -0.640625
Q12.7969 0.140625 7.71875 1.70312
L7.71875 11.625
Q12.1094 9.23438 16.7969 8.0625
Q21.4844 6.89062 26.7031 6.89062
Q35.1562 6.89062 40.0781 11.3281
Q45.0156 15.7656 45.0156 23.3906
Q45.0156 31 40.0781 35.4375
Q35.1562 39.8906 26.7031 39.8906
Q22.75 39.8906 18.8125 39.0156
Q14.8906 38.1406 10.7969 36.2812
z
" id="DejaVuSans-35"/>
      <path d="
M9.42188 54.6875
L18.4062 54.6875
L18.4062 -0.984375
Q18.4062 -11.4219 14.4219 -16.1094
Q10.4531 -20.7969 1.60938 -20.7969
L-1.8125 -20.7969
L-1.8125 -13.1875
L0.59375 -13.1875
Q5.71875 -13.1875 7.5625 -10.8125
Q9.42188 -8.45312 9.42188 -0.984375
z

M9.42188 75.9844
L18.4062 75.9844
L18.4062 64.5938
L9.42188 64.5938
z
" id="DejaVuSans-6a"/>
     </defs>
     <g transform="translate(396.659524958 81.4173300158)scale(0.12 -0.12)">
      <use xlink:href="#DejaVuSans-28"/>
      <use x="39.013671875" xlink:href="#DejaVuSans-27"/>
      <use x="66.50390625" xlink:href="#DejaVuSans-6a"/>
      <use x="94.287109375" xlink:href="#DejaVuSans-27"/>
      <use x="121.77734375" xlink:href="#DejaVuSans-2c"/>
      <use x="153.564453125" xlink:href="#DejaVuSans-20"/>
      <use x="185.3515625" xlink:href="#DejaVuSans-35"/>
      <use x="248.974609375" xlink:href="#DejaVuSans-29"/>
     </g>
    </g>
   </g>
   <g id="text_6">
    <g clip-path="url(#pd19962080c)">
     <!-- ('a', 6) -->
     <defs>
      <path d="
M34.2812 27.4844
Q23.3906 27.4844 19.1875 25
Q14.9844 22.5156 14.9844 16.5
Q14.9844 11.7188 18.1406 8.90625
Q21.2969 6.10938 26.7031 6.10938
Q34.1875 6.10938 38.7031 11.4062
Q43.2188 16.7031 43.2188 25.4844
L43.2188 27.4844
z

M52.2031 31.2031
L52.2031 0
L43.2188 0
L43.2188 8.29688
Q40.1406 3.32812 35.5469 0.953125
Q30.9531 -1.42188 24.3125 -1.42188
Q15.9219 -1.42188 10.9531 3.29688
Q6 8.01562 6 15.9219
Q6 25.1406 12.1719 29.8281
Q18.3594 34.5156 30.6094 34.5156
L43.2188 34.5156
L43.2188 35.4062
Q43.2188 41.6094 39.1406 45
Q35.0625 48.3906 27.6875 48.3906
Q23 48.3906 18.5469 47.2656
Q14.1094 46.1406 10.0156 43.8906
L10.0156 52.2031
Q14.9375 54.1094 19.5781 55.0469
Q24.2188 56 28.6094 56
Q40.4844 56 46.3438 49.8438
Q52.2031 43.7031 52.2031 31.2031" id="DejaVuSans-61"/>
     </defs>
     <g transform="translate(269.215787483 66.76125)scale(0.12 -0.12)">
      <use xlink:href="#DejaVuSans-28"/>
      <use x="39.013671875" xlink:href="#DejaVuSans-27"/>
      <use x="66.50390625" xlink:href="#DejaVuSans-61"/>
      <use x="127.783203125" xlink:href="#DejaVuSans-27"/>
      <use x="155.2734375" xlink:href="#DejaVuSans-2c"/>
      <use x="187.060546875" xlink:href="#DejaVuSans-20"/>
      <use x="218.84765625" xlink:href="#DejaVuSans-36"/>
      <use x="282.470703125" xlink:href="#DejaVuSans-29"/>
     </g>
    </g>
   </g>
   <g id="text_7">
    <g clip-path="url(#pd19962080c)">
     <!-- ('i', 7) -->
     <defs>
      <path d="
M9.42188 54.6875
L18.4062 54.6875
L18.4062 0
L9.42188 0
z

M9.42188 75.9844
L18.4062 75.9844
L18.4062 64.5938
L9.42188 64.5938
z
" id="DejaVuSans-69"/>
     </defs>
     <g transform="translate(449.529250511 345.262686051)scale(0.12 -0.12)">
      <use xlink:href="#DejaVuSans-28"/>
      <use x="39.013671875" xlink:href="#DejaVuSans-27"/>
      <use x="66.50390625" xlink:href="#DejaVuSans-69"/>
      <use x="94.287109375" xlink:href="#DejaVuSans-27"/>
      <use x="121.77734375" xlink:href="#DejaVuSans-2c"/>
      <use x="153.564453125" xlink:href="#DejaVuSans-20"/>
      <use x="185.3515625" xlink:href="#DejaVuSans-37"/>
      <use x="248.974609375" xlink:href="#DejaVuSans-29"/>
     </g>
    </g>
   </g>
   <g id="text_8">
    <g clip-path="url(#pd19962080c)">
     <!-- ('e', 5) -->
     <defs>
      <path d="
M56.2031 29.5938
L56.2031 25.2031
L14.8906 25.2031
Q15.4844 15.9219 20.4844 11.0625
Q25.4844 6.20312 34.4219 6.20312
Q39.5938 6.20312 44.4531 7.46875
Q49.3125 8.73438 54.1094 11.2812
L54.1094 2.78125
Q49.2656 0.734375 44.1875 -0.34375
Q39.1094 -1.42188 33.8906 -1.42188
Q20.7969 -1.42188 13.1562 6.1875
Q5.51562 13.8125 5.51562 26.8125
Q5.51562 40.2344 12.7656 48.1094
Q20.0156 56 32.3281 56
Q43.3594 56 49.7812 48.8906
Q56.2031 41.7969 56.2031 29.5938
M47.2188 32.2344
Q47.125 39.5938 43.0938 43.9844
Q39.0625 48.3906 32.4219 48.3906
Q24.9062 48.3906 20.3906 44.1406
Q15.875 39.8906 15.1875 32.1719
z
" id="DejaVuSans-65"/>
     </defs>
     <g transform="translate(156.760730226 75.5911374)scale(0.12 -0.12)">
      <use xlink:href="#DejaVuSans-28"/>
      <use x="39.013671875" xlink:href="#DejaVuSans-27"/>
      <use x="66.50390625" xlink:href="#DejaVuSans-65"/>
      <use x="128.02734375" xlink:href="#DejaVuSans-27"/>
      <use x="155.517578125" xlink:href="#DejaVuSans-2c"/>
      <use x="187.3046875" xlink:href="#DejaVuSans-20"/>
      <use x="219.091796875" xlink:href="#DejaVuSans-35"/>
      <use x="282.71484375" xlink:href="#DejaVuSans-29"/>
     </g>
    </g>
   </g>
   <g id="text_9">
    <g clip-path="url(#pd19962080c)">
     <!-- ('b', 7) -->
     <defs>
      <path d="
M48.6875 27.2969
Q48.6875 37.2031 44.6094 42.8438
Q40.5312 48.4844 33.4062 48.4844
Q26.2656 48.4844 22.1875 42.8438
Q18.1094 37.2031 18.1094 27.2969
Q18.1094 17.3906 22.1875 11.75
Q26.2656 6.10938 33.4062 6.10938
Q40.5312 6.10938 44.6094 11.75
Q48.6875 17.3906 48.6875 27.2969
M18.1094 46.3906
Q20.9531 51.2656 25.2656 53.625
Q29.5938 56 35.5938 56
Q45.5625 56 51.7812 48.0938
Q58.0156 40.1875 58.0156 27.2969
Q58.0156 14.4062 51.7812 6.48438
Q45.5625 -1.42188 35.5938 -1.42188
Q29.5938 -1.42188 25.2656 0.953125
Q20.9531 3.32812 18.1094 8.20312
L18.1094 0
L9.07812 0
L9.07812 75.9844
L18.1094 75.9844
z
" id="DejaVuSans-62"/>
     </defs>
     <g transform="translate(234.812062112 381.7678125)scale(0.12 -0.12)">
      <use xlink:href="#DejaVuSans-28"/>
      <use x="39.013671875" xlink:href="#DejaVuSans-27"/>
      <use x="66.50390625" xlink:href="#DejaVuSans-62"/>
      <use x="129.98046875" xlink:href="#DejaVuSans-27"/>
      <use x="157.470703125" xlink:href="#DejaVuSans-2c"/>
      <use x="189.2578125" xlink:href="#DejaVuSans-20"/>
      <use x="221.044921875" xlink:href="#DejaVuSans-37"/>
      <use x="284.66796875" xlink:href="#DejaVuSans-29"/>
     </g>
    </g>
   </g>
   <g id="text_10">
    <g clip-path="url(#pd19962080c)">
     <!-- ('c', 5) -->
     <defs>
      <path d="
M48.7812 52.5938
L48.7812 44.1875
Q44.9688 46.2969 41.1406 47.3438
Q37.3125 48.3906 33.4062 48.3906
Q24.6562 48.3906 19.8125 42.8438
Q14.9844 37.3125 14.9844 27.2969
Q14.9844 17.2812 19.8125 11.7344
Q24.6562 6.20312 33.4062 6.20312
Q37.3125 6.20312 41.1406 7.25
Q44.9688 8.29688 48.7812 10.4062
L48.7812 2.09375
Q45.0156 0.34375 40.9844 -0.53125
Q36.9688 -1.42188 32.4219 -1.42188
Q20.0625 -1.42188 12.7812 6.34375
Q5.51562 14.1094 5.51562 27.2969
Q5.51562 40.6719 12.8594 48.3281
Q20.2188 56 33.0156 56
Q37.1562 56 41.1094 55.1406
Q45.0625 54.2969 48.7812 52.5938" id="DejaVuSans-63"/>
     </defs>
     <g transform="translate(40.1053125 111.559884583)scale(0.12 -0.12)">
      <use xlink:href="#DejaVuSans-28"/>
      <use x="39.013671875" xlink:href="#DejaVuSans-27"/>
      <use x="66.50390625" xlink:href="#DejaVuSans-63"/>
      <use x="121.484375" xlink:href="#DejaVuSans-27"/>
      <use x="148.974609375" xlink:href="#DejaVuSans-2c"/>
      <use x="180.76171875" xlink:href="#DejaVuSans-20"/>
      <use x="212.548828125" xlink:href="#DejaVuSans-35"/>
      <use x="276.171875" xlink:href="#DejaVuSans-29"/>
     </g>
    </g>
   </g>
   <g id="text_11">
    <g clip-path="url(#pd19962080c)">
     <!-- ('m', 9) -->
     <defs>
      <path d="
M10.9844 1.51562
L10.9844 10.5
Q14.7031 8.73438 18.5 7.8125
Q22.3125 6.89062 25.9844 6.89062
Q35.75 6.89062 40.8906 13.4531
Q46.0469 20.0156 46.7812 33.4062
Q43.9531 29.2031 39.5938 26.9531
Q35.25 24.7031 29.9844 24.7031
Q19.0469 24.7031 12.6719 31.3125
Q6.29688 37.9375 6.29688 49.4219
Q6.29688 60.6406 12.9375 67.4219
Q19.5781 74.2188 30.6094 74.2188
Q43.2656 74.2188 49.9219 64.5156
Q56.5938 54.8281 56.5938 36.375
Q56.5938 19.1406 48.4062 8.85938
Q40.2344 -1.42188 26.4219 -1.42188
Q22.7031 -1.42188 18.8906 -0.6875
Q15.0938 0.046875 10.9844 1.51562
M30.6094 32.4219
Q37.25 32.4219 41.125 36.9531
Q45.0156 41.5 45.0156 49.4219
Q45.0156 57.2812 41.125 61.8438
Q37.25 66.4062 30.6094 66.4062
Q23.9688 66.4062 20.0938 61.8438
Q16.2188 57.2812 16.2188 49.4219
Q16.2188 41.5 20.0938 36.9531
Q23.9688 32.4219 30.6094 32.4219" id="DejaVuSans-39"/>
      <path d="
M52 44.1875
Q55.375 50.25 60.0625 53.125
Q64.75 56 71.0938 56
Q79.6406 56 84.2812 50.0156
Q88.9219 44.0469 88.9219 33.0156
L88.9219 0
L79.8906 0
L79.8906 32.7188
Q79.8906 40.5781 77.0938 44.375
Q74.3125 48.1875 68.6094 48.1875
Q61.625 48.1875 57.5625 43.5469
Q53.5156 38.9219 53.5156 30.9062
L53.5156 0
L44.4844 0
L44.4844 32.7188
Q44.4844 40.625 41.7031 44.4062
Q38.9219 48.1875 33.1094 48.1875
Q26.2188 48.1875 22.1562 43.5312
Q18.1094 38.875 18.1094 30.9062
L18.1094 0
L9.07812 0
L9.07812 54.6875
L18.1094 54.6875
L18.1094 46.1875
Q21.1875 51.2188 25.4844 53.6094
Q29.7812 56 35.6875 56
Q41.6562 56 45.8281 52.9688
Q50 49.9531 52 44.1875" id="DejaVuSans-6d"/>
     </defs>
     <g transform="translate(267.792920964 179.985550528)scale(0.12 -0.12)">
      <use xlink:href="#DejaVuSans-28"/>
      <use x="39.013671875" xlink:href="#DejaVuSans-27"/>
      <use x="66.50390625" xlink:href="#DejaVuSans-6d"/>
      <use x="163.916015625" xlink:href="#DejaVuSans-27"/>
      <use x="191.40625" xlink:href="#DejaVuSans-2c"/>
      <use x="223.193359375" xlink:href="#DejaVuSans-20"/>
      <use x="254.98046875" xlink:href="#DejaVuSans-39"/>
      <use x="318.603515625" xlink:href="#DejaVuSans-29"/>
     </g>
    </g>
   </g>
   <g id="text_12">
    <g clip-path="url(#pd19962080c)">
     <!-- ('d', 8) -->
     <defs>
      <path d="
M45.4062 46.3906
L45.4062 75.9844
L54.3906 75.9844
L54.3906 0
L45.4062 0
L45.4062 8.20312
Q42.5781 3.32812 38.25 0.953125
Q33.9375 -1.42188 27.875 -1.42188
Q17.9688 -1.42188 11.7344 6.48438
Q5.51562 14.4062 5.51562 27.2969
Q5.51562 40.1875 11.7344 48.0938
Q17.9688 56 27.875 56
Q33.9375 56 38.25 53.625
Q42.5781 51.2656 45.4062 46.3906
M14.7969 27.2969
Q14.7969 17.3906 18.875 11.75
Q22.9531 6.10938 30.0781 6.10938
Q37.2031 6.10938 41.2969 11.75
Q45.4062 17.3906 45.4062 27.2969
Q45.4062 37.2031 41.2969 42.8438
Q37.2031 48.4844 30.0781 48.4844
Q22.9531 48.4844 18.875 42.8438
Q14.7969 37.2031 14.7969 27.2969" id="DejaVuSans-64"/>
     </defs>
     <g transform="translate(142.696326024 229.167494042)scale(0.12 -0.12)">
      <use xlink:href="#DejaVuSans-28"/>
      <use x="39.013671875" xlink:href="#DejaVuSans-27"/>
      <use x="66.50390625" xlink:href="#DejaVuSans-64"/>
      <use x="129.98046875" xlink:href="#DejaVuSans-27"/>
      <use x="157.470703125" xlink:href="#DejaVuSans-2c"/>
      <use x="189.2578125" xlink:href="#DejaVuSans-20"/>
      <use x="221.044921875" xlink:href="#DejaVuSans-38"/>
      <use x="284.66796875" xlink:href="#DejaVuSans-29"/>
     </g>
    </g>
   </g>
   <g id="text_13">
    <g clip-path="url(#pd19962080c)">
     <!-- ('f', 9) -->
     <defs>
      <path d="
M37.1094 75.9844
L37.1094 68.5
L28.5156 68.5
Q23.6875 68.5 21.7969 66.5469
Q19.9219 64.5938 19.9219 59.5156
L19.9219 54.6875
L34.7188 54.6875
L34.7188 47.7031
L19.9219 47.7031
L19.9219 0
L10.8906 0
L10.8906 47.7031
L2.29688 47.7031
L2.29688 54.6875
L10.8906 54.6875
L10.8906 58.5
Q10.8906 67.625 15.1406 71.7969
Q19.3906 75.9844 28.6094 75.9844
z
" id="DejaVuSans-66"/>
     </defs>
     <g transform="translate(325.52862342 262.606890416)scale(0.12 -0.12)">
      <use xlink:href="#DejaVuSans-28"/>
      <use x="39.013671875" xlink:href="#DejaVuSans-27"/>
      <use x="66.50390625" xlink:href="#DejaVuSans-66"/>
      <use x="101.708984375" xlink:href="#DejaVuSans-27"/>
      <use x="129.19921875" xlink:href="#DejaVuSans-2c"/>
      <use x="160.986328125" xlink:href="#DejaVuSans-20"/>
      <use x="192.7734375" xlink:href="#DejaVuSans-39"/>
      <use x="256.396484375" xlink:href="#DejaVuSans-29"/>
     </g>
    </g>
   </g>
  </g>
 </g>
 <defs>
  <clipPath id="pd19962080c">
   <rect height="441.0" width="585.0" x="0.0" y="0.0"/>
  </clipPath>
 </defs>
</svg>
